<svg xmlns="http://www.w3.org/2000/svg" xmlns:xlink="http://www.w3.org/1999/xlink" width="131.857" height="98.457" viewBox="0 0 98.893 73.843"><defs><symbol id="a" overflow="visible"><path d="M8.344 0c.187 0 .297-.047.297-.14L4.89-7.657c-.079-.14-.172-.219-.313-.219-.14 0-.25.078-.328.219L.578-.281c-.047.078-.062.125-.062.156 0 .078.093.125.28.125ZM4.219-6.64l2.86 5.734h-5.72Zm0 0"/></symbol><symbol id="b" overflow="visible"><path d="M7.672-4.031H.875c-.172 0-.266.078-.266.25 0 .156.094.25.266.25h6.797c.187 0 .266-.094.266-.25 0-.14-.11-.25-.266-.25Zm0 2.062H.875c-.172 0-.266.094-.266.25 0 .172.094.25.266.25h6.797c.187 0 .266-.078.266-.25 0-.14-.11-.25-.266-.25Zm0 0"/></symbol><symbol id="c" overflow="visible"><path d="M8.578-7.234c.031-.063.063-.125.063-.141 0-.094-.11-.14-.297-.14H.797c-.188 0-.281.046-.281.14L4.25.141c.078.14.188.218.328.218s.234-.078.313-.218ZM4.891-.797l-2.922-5.86h5.843Zm0 0"/></symbol><symbol id="d" overflow="visible"><path d="M2.11-2.75a.587.587 0 0 0-.579-.578.577.577 0 0 0-.578.578c0 .313.25.578.578.578a.587.587 0 0 0 .578-.578Zm0 0"/></symbol><symbol id="h" overflow="visible"><path d="M7.672-3.016H4.547v-3.14c0-.172-.094-.25-.266-.25-.172 0-.265.078-.265.25v3.14H.875c-.172 0-.266.094-.266.266 0 .172.094.266.266.266h3.14v3.14c0 .172.094.25.266.25.172 0 .266-.078.266-.25v-3.14h3.125c.187 0 .266-.094.266-.266 0-.14-.11-.266-.266-.266Zm0 0"/></symbol><symbol id="e" overflow="visible"><path d="M2.984-5.5c-.578 0-1.015.172-1.28.547-.22.281-.329.531-.329.703 0 .188.156.313.328.313.25 0 .469-.204.469-.454 0-.171-.094-.28-.281-.312.25-.344.609-.516 1.078-.516.797 0 1.219.594 1.219 1.407 0 .28-.063.624-.172 1.078-.172-.532-.563-.797-1.157-.797-.453 0-.906.14-1.343.437-.438.297-.735.64-.907 1.063-.093.281-.14.515-.14.765 0 .297.11.61.344.907.28.343.703.515 1.28.515.813 0 1.47-.453 1.845-.953a4.688 4.688 0 0 0 .859-1.828c.062-.297.094-.563.094-.797 0-1.187-.75-2.078-1.907-2.078Zm.86 3.25c0 .328-.125.734-.406 1.234-.235.454-.704.86-1.329.86-.578 0-.937-.297-.937-.844 0-.266.203-1.016.281-1.219.203-.531.75-1.047 1.438-1.047.593 0 .953.422.953 1.016Zm0 0"/></symbol><symbol id="g" overflow="visible"><path d="M4.484-2.813c0-.39-.39-.578-.812-.578-.344 0-.625.157-.844.5-.187-.343-.5-.5-.922-.5-.281 0-.578.11-.875.375-.328.266-.484.532-.484.813 0 .078.047.125.156.125.078 0 .14-.047.172-.14.14-.423.516-.907 1.016-.907.28 0 .421.156.421.469 0 .094-.062.36-.156.781L1.891-.844c-.063.297-.344.656-.688.656a.726.726 0 0 1-.328-.078c.156-.078.281-.25.281-.421 0-.188-.14-.313-.328-.313-.265 0-.453.234-.453.484 0 .391.406.594.813.594.359 0 .64-.172.859-.515.172.343.484.515.906.515a1.2 1.2 0 0 0 1.016-.515c.234-.297.344-.532.344-.672 0-.079-.047-.125-.141-.125-.094 0-.156.046-.188.14-.125.422-.515.907-1 .907-.28 0-.437-.157-.437-.47 0-.109.14-.687.39-1.718.141-.5.36-.75.72-.75h.062c.094 0 .187.031.265.063-.187.093-.28.234-.28.421 0 .188.14.329.327.329.266 0 .453-.235.453-.5Zm0 0"/></symbol><symbol id="i" overflow="visible"><path d="M4.031-3.313c-.156 0-.265.063-.328.188a2.898 2.898 0 0 0-.125.453L3.11-.828a.876.876 0 0 1-.156.234c-.234.281-.5.422-.75.422-.328 0-.484-.203-.484-.61 0-.28.125-.78.406-1.452.078-.235.125-.407.125-.485 0-.406-.344-.672-.75-.672-.375 0-.656.172-.875.547-.172.297-.266.516-.266.64 0 .079.063.126.172.126.078 0 .125-.047.156-.14.172-.595.438-.907.797-.907.094 0 .157.078.157.234 0 .125-.032.25-.11.438-.156.406-.25.656-.297.765-.093.297-.14.563-.14.782 0 .656.422 1 1.078 1 .281 0 .547-.094.781-.281-.125.437-.265.765-.469 1.015-.28.313-.578.469-.89.469-.235 0-.422-.063-.516-.203.203-.047.39-.188.39-.438 0-.203-.109-.312-.343-.312-.266 0-.469.25-.469.531 0 .453.453.703.938.703.453 0 .86-.156 1.234-.469A1.95 1.95 0 0 0 3.564 0l.718-2.875c.032-.078.032-.14.032-.172 0-.156-.125-.265-.282-.265Zm0 0"/></symbol><symbol id="j" overflow="visible"><path d="M3.094-2.594c-.203.219-.516.485-.969.844-.453.36-.766.64-.969.828a6.24 6.24 0 0 0-.375.406C.562-.28.47-.109.47-.046c0 .077.062.124.156.124a.172.172 0 0 0 .156-.094c.219-.296.438-.453.672-.453.125 0 .234.063.375.188.203.172.313.265.344.281a.711.711 0 0 0 .312.078c.266 0 .5-.078.72-.25.233-.187.64-.61.64-.953 0-.078-.063-.125-.156-.125-.079 0-.141.047-.172.14-.125.313-.5.532-.938.532-.203 0-.875-.156-1.094-.156h-.093c.234-.235.53-.485.906-.797a23 23 0 0 0 .969-.797c.5-.5.75-.813.75-.953 0-.078-.063-.11-.172-.11a.167.167 0 0 0-.14.094c-.204.297-.392.438-.548.438-.11 0-.265-.094-.469-.266-.218-.172-.406-.266-.562-.266-.234 0-.453.094-.688.297-.25.203-.359.39-.359.61 0 .093.047.125.156.125.063 0 .11-.032.157-.094.14-.235.265-.297.64-.297.203 0 .86.156 1.063.156Zm0 0"/></symbol><symbol id="l" overflow="visible"><path d="M.922-3.266a.424.424 0 0 0 .422-.437c0-.266-.14-.422-.422-.422a1.15 1.15 0 0 1 1.047-.656c.687 0 1.125.5 1.125 1.187 0 .36-.125.719-.39 1.063-.142.187-.235.312-.313.375L.562-.344C.47-.25.484-.234.484 0h3.172l.235-1.453h-.313c-.062.406-.125.656-.187.703-.047.031-.282.047-.735.047H1.344c.515-.453 1-.875 1.453-1.235.344-.265.594-.5.75-.718.234-.297.344-.61.344-.938 0-.484-.188-.86-.563-1.14-.328-.25-.75-.375-1.234-.375-.438 0-.797.125-1.11.359-.328.281-.5.61-.5 1.031 0 .266.188.453.438.453Zm0 0"/></symbol><symbol id="f" overflow="visible"><path d="M.844-2.328c.187 0 .328-.14.328-.344 0-.187-.094-.312-.281-.344.171-.25.421-.359.78-.359.532 0 .954.313.954.828 0 .344-.25.719-.734 1.14L.578-.28C.531-.25.5-.22.5-.187V0h2.563l.187-1.094h-.281c-.047.297-.094.469-.14.5-.032.016-.235.031-.579.031h-.984c.703-.53.859-.625 1.312-.953.219-.156.375-.312.469-.453.125-.187.187-.39.187-.593 0-.36-.156-.641-.468-.844-.266-.172-.594-.25-.985-.25-.312 0-.61.078-.86.234-.28.188-.421.438-.421.735a.35.35 0 0 0 .344.359Zm0 0"/></symbol><clipPath id="k"><path d="M84 33h14.895v2H84Zm0 0"/></clipPath></defs><use xlink:href="#a" y="18.92"/><use xlink:href="#b" x="12.219" y="18.92"/><use xlink:href="#c" x="23.832" y="18.92"/><use xlink:href="#d" x="35.44" y="18.92"/><use xlink:href="#c" x="40.942" y="18.92"/><use xlink:href="#b" x="12.219" y="36.719"/><use xlink:href="#e" x="27.427" y="32.121"/><use xlink:href="#f" x="32.524" y="29.326"/><use xlink:href="#e" x="24.932" y="40.913"/><use xlink:href="#g" x="30.03" y="40.913"/><use xlink:href="#f" x="35.019" y="38.688"/><path fill="none" stroke="#000" stroke-width=".528" d="M24.934 33.969h14.261"/><use xlink:href="#h" x="42.74" y="36.719"/><use xlink:href="#e" x="57.106" y="32.121"/><use xlink:href="#f" x="62.204" y="29.326"/><use xlink:href="#e" x="54.843" y="40.913"/><use xlink:href="#i" x="59.94" y="40.913"/><use xlink:href="#f" x="64.468" y="38.688"/><path fill="none" stroke="#000" stroke-width=".528" d="M54.844 33.969h13.8"/><use xlink:href="#h" x="72.189" y="36.719"/><use xlink:href="#e" x="86.405" y="32.121"/><use xlink:href="#f" x="91.502" y="29.326"/><use xlink:href="#e" x="84.291" y="40.913"/><use xlink:href="#j" x="89.389" y="40.913"/><use xlink:href="#f" x="93.616" y="38.688"/><g clip-path="url(#k)"><path fill="none" stroke="#000" stroke-width=".528" d="M84.293 33.969h13.5"/></g><use xlink:href="#b" x="12.219" y="57.97"/><use xlink:href="#c" x="23.832" y="57.97"/><use xlink:href="#l" x="32.995" y="53.977"/></svg>