<svg xmlns="http://www.w3.org/2000/svg" xmlns:xlink="http://www.w3.org/1999/xlink" width="159.062" height="83.985" class="typst-doc"><use xlink:href="#a" class="typst-text" transform="matrix(1 0 0 -1 0 11.74)"/><use xlink:href="#b" class="typst-text" transform="matrix(1 0 0 -1 17.772 11.74)"/><use xlink:href="#c" class="typst-text" transform="matrix(1 0 0 -1 34.665 11.74)"/><use xlink:href="#d" class="typst-text" transform="matrix(1 0 0 -1 51.548 11.74)"/><use xlink:href="#c" class="typst-text" transform="matrix(1 0 0 -1 59.552 11.74)"/><g class="typst-group"><use xlink:href="#b" class="typst-text" transform="matrix(1 0 0 -1 17.772 46.008)"/><g class="typst-group"><use xlink:href="#e" class="typst-text" transform="matrix(1 0 0 -1 40.84 34.792)"/><use xlink:href="#f" class="typst-text" transform="matrix(1 0 0 -1 50.345 28.984)"/><g class="typst-group"><use xlink:href="#e" class="typst-text" transform="matrix(1 0 0 -1 36.265 57.368)"/><use xlink:href="#g" class="typst-text" transform="matrix(1 0 0 -1 45.769 57.368)"/><use xlink:href="#f" class="typst-text" transform="matrix(1 0 0 -1 54.92 52.744)"/></g><path fill="none" stroke="#000" stroke-width=".768" d="M36.265 42.008H62.19" class="typst-shape"/></g><use xlink:href="#h" class="typst-text" transform="matrix(1 0 0 -1 67.345 46.008)"/><g class="typst-group"><use xlink:href="#e" class="typst-text" transform="matrix(1 0 0 -1 89.093 34.792)"/><use xlink:href="#f" class="typst-text" transform="matrix(1 0 0 -1 98.597 28.984)"/><g class="typst-group"><use xlink:href="#e" class="typst-text" transform="matrix(1 0 0 -1 84.949 57.368)"/><use xlink:href="#i" class="typst-text" transform="matrix(1 0 0 -1 94.453 57.368)"/><use xlink:href="#f" class="typst-text" transform="matrix(1 0 0 -1 102.74 52.744)"/></g><path fill="none" stroke="#000" stroke-width=".768" d="M84.949 42.008h25.06" class="typst-shape"/></g><use xlink:href="#h" class="typst-text" transform="matrix(1 0 0 -1 115.165 46.008)"/><g class="typst-group"><use xlink:href="#e" class="typst-text" transform="matrix(1 0 0 -1 136.729 34.792)"/><use xlink:href="#f" class="typst-text" transform="matrix(1 0 0 -1 146.233 28.984)"/><g class="typst-group"><use xlink:href="#e" class="typst-text" transform="matrix(1 0 0 -1 132.769 57.368)"/><use xlink:href="#j" class="typst-text" transform="matrix(1 0 0 -1 142.273 57.368)"/><use xlink:href="#f" class="typst-text" transform="matrix(1 0 0 -1 150.193 52.744)"/></g><path fill="none" stroke="#000" stroke-width=".768" d="M132.769 42.008h24.693" class="typst-shape"/></g></g><g class="typst-group"><use xlink:href="#b" class="typst-text" transform="matrix(1 0 0 -1 17.772 83.173)"/><use xlink:href="#c" class="typst-text" transform="matrix(1 0 0 -1 34.665 83.173)"/><use xlink:href="#f" class="typst-text" transform="matrix(1 0 0 -1 47.993 77.365)"/></g><defs><symbol id="a" overflow="visible"><path d="M12.144 0c.272 0 .416.064.416.208L7.12 11.136c-.112.208-.256.32-.464.32-.208 0-.352-.112-.464-.32L.832.4C.784.288.752.224.752.192.752.064.896 0 1.168 0Zm-6 9.664 4.16-8.336h-8.32Z"/></symbol><symbol id="b" overflow="visible"><path d="M11.168 5.872H1.28c-.256 0-.384-.128-.384-.368s.128-.368.384-.368h9.888c.256 0 .384.128.384.368 0 .192-.176.368-.384.368Zm0-3.008H1.28c-.256 0-.384-.128-.384-.368s.128-.368.384-.368h9.888c.256 0 .384.128.384.368a.376.376 0 0 1-.384.368Z"/></symbol><symbol id="c" overflow="visible"><path d="M12.48 10.512c.048.112.08.192.08.224 0 .128-.144.192-.416.192H1.168c-.272 0-.416-.064-.416-.208L6.192-.208c.112-.208.256-.32.464-.32.208 0 .352.112.464.32Zm-5.36-9.36L2.864 9.68h8.496Z"/></symbol><symbol id="d" overflow="visible"><path d="M3.072 4a.854.854 0 0 1-.848.848A.854.854 0 0 1 1.376 4c0-.464.384-.848.848-.848.464 0 .848.384.848.848Z"/></symbol><symbol id="e" overflow="visible"><path d="M4.096 9.184c0 .368-.24.576-.704.608.496.752 1.216 1.136 2.16 1.136 1.472 0 2.192-1.232 2.192-2.8 0-.656-.128-1.456-.368-2.432C7.104 6.8 6.416 7.36 5.344 7.36c-1.232 0-2.304-.512-3.264-1.504S.64 3.76.64 2.528c0-.592.208-1.2.624-1.808C1.76 0 2.528-.352 3.6-.352c1.44 0 2.64.672 3.584 2.032.896 1.312 1.872 3.584 1.872 5.616 0 1.136-.288 2.096-.864 2.864-.624.864-1.504 1.296-2.608 1.296-1.072 0-1.872-.368-2.416-1.12-.432-.592-.656-1.072-.656-1.44 0-.416.224-.624.672-.624.48 0 .912.432.912.912Zm2.928-4.336c0-1.008-.304-2-.928-2.976C5.408.768 4.592.224 3.648.224c-1.056 0-1.664.688-1.664 1.712 0 .448.112 1.072.336 1.872.224.8.448 1.36.688 1.696.64.912 1.424 1.376 2.336 1.376 1.168 0 1.68-.864 1.68-2.032Z"/></symbol><symbol id="f" overflow="visible"><path d="M1.333 4.749c.358 0 .627.269.627.627 0 .403-.213.616-.627.627.246.527.806.952 1.534.952.986 0 1.635-.739 1.635-1.725 0-.537-.19-1.052-.582-1.556a5.255 5.255 0 0 0-.437-.538L.83.504C.683.37.706.336.706 0H5.32l.347 2.106h-.47c-.079-.594-.168-.941-.269-1.02-.056-.033-.403-.056-1.064-.056H1.96c.75.661 1.445 1.255 2.106 1.781.504.392.862.74 1.086 1.042.336.437.504.896.504 1.377 0 .695-.269 1.244-.818 1.647-.481.37-1.086.56-1.803.56-.616 0-1.142-.18-1.601-.538-.482-.392-.728-.885-.728-1.49 0-.38.28-.66.627-.66Z"/></symbol><symbol id="g" overflow="visible"><path d="M8.432 5.968c0 .736-.72 1.104-1.52 1.104-.688 0-1.232-.368-1.648-1.104-.336.736-.896 1.104-1.712 1.104-.784 0-1.424-.368-1.936-1.088C1.184 5.36.96 4.896.96 4.592c0-.144.08-.224.24-.224.144 0 .24.08.272.224.304.928.976 2.016 2.048 2.016.528 0 .784-.336.784-.992 0-.336-.288-1.584-.848-3.728-.272-1.072-.752-1.6-1.44-1.6-.224 0-.432.048-.608.128.416.16.624.448.624.864s-.208.624-.64.624c-.528 0-.928-.448-.928-.976C.464.192 1.216-.176 2-.176c.672 0 1.216.368 1.648 1.104.304-.736.88-1.104 1.712-1.104.768 0 1.408.368 1.92 1.088.432.624.656 1.088.656 1.392 0 .144-.08.224-.24.224-.144 0-.224-.08-.272-.224C7.152 1.392 6.432.288 5.392.288c-.528 0-.8.32-.8.976 0 .208.08.656.256 1.376l.544 2.16c.304 1.2.8 1.808 1.504 1.808.224 0 .432-.048.608-.128-.432-.144-.64-.432-.64-.864 0-.416.224-.624.656-.624.512 0 .912.464.912.976Z"/></symbol><symbol id="h" overflow="visible"><path d="M11.168 4.384h-4.56v4.56c0 .256-.128.384-.384.384S5.84 9.2 5.84 8.944v-4.56H1.28c-.256 0-.384-.128-.384-.384s.128-.384.384-.384h4.56v-4.56c0-.256.128-.384.384-.384s.384.128.384.384v4.56h4.56c.256 0 .384.128.384.384a.39.39 0 0 1-.384.384Z"/></symbol><symbol id="i" overflow="visible"><path d="M2.608 7.072c-.72 0-1.28-.4-1.68-1.2C.624 5.248.464 4.816.464 4.576c0-.144.08-.224.256-.224.224 0 .24.096.304.336.368 1.264.88 1.904 1.536 1.904.208 0 .32-.144.32-.432 0-.256-.08-.624-.256-1.088-.608-1.648-.912-2.752-.912-3.344 0-1.216.752-1.936 1.984-1.936.528 0 1.024.192 1.472.576-.56-2.112-1.44-3.168-2.64-3.168-.544 0-.912.176-1.104.528.64.032.96.336.96.912 0 .4-.208.608-.64.608C1.152-.752.8-1.248.8-1.84c0-.88.8-1.44 1.728-1.44 1.84 0 3.344 1.696 3.744 3.264l1.504 6.048c.048.176.064.304.064.384 0 .32-.176.48-.512.48-.256 0-.464-.128-.608-.368a11.782 11.782 0 0 1-.224-.864L5.472 1.552C5.312.976 4.464.256 3.744.256c-.608 0-.912.4-.912 1.216 0 .672.272 1.696.8 3.072.208.56.32.944.32 1.168 0 .784-.56 1.36-1.344 1.36Z"/></symbol><symbol id="j" overflow="visible"><path d="M2.592 1.472 2.32 1.44c.768.752 1.36 1.296 1.76 1.664l1.536 1.424c.368.336.752.752 1.12 1.216.496.608.736.976.736 1.104 0 .144-.08.224-.24.224-.112 0-.208-.064-.288-.208-.4-.656-.768-.976-1.12-.976-.352 0-.608.288-.752.48-.384.464-.768.704-1.136.704-.416 0-.848-.192-1.296-.608-.448-.416-.672-.832-.672-1.248 0-.16.08-.24.256-.24.112 0 .208.08.272.224.176.464.608.688 1.264.688.224 0 .544-.08.976-.224a3.621 3.621 0 0 1 1.088-.24 49.965 49.965 0 0 0-2.08-1.952L2.32 2.144c-.24-.24-.544-.56-.88-.96C.944.56.688.192.688.048c0-.144.08-.224.256-.224.096 0 .192.08.304.24.4.624.832.944 1.28.944.256 0 .544-.192.864-.592.32-.4.688-.592 1.056-.592.544 0 1.088.288 1.664.848.576.56.864 1.104.864 1.632 0 .144-.08.224-.256.224-.112 0-.208-.08-.288-.24a1.934 1.934 0 0 0-1.824-1.28c-.384 0-1.632.464-2.016.464Z"/></symbol></defs></svg>