<svg xmlns="http://www.w3.org/2000/svg" viewBox="0 0 1080 1080"><path fill="#336" d="M540 1079.5c-72.83 0-143.49-14.26-210-42.4-64.24-27.17-121.94-66.07-171.49-115.62-49.55-49.55-88.45-107.24-115.62-171.49C14.76 683.49.5 612.83.5 540s14.26-143.49 42.4-210c27.17-64.24 66.07-121.94 115.62-171.49 49.55-49.55 107.24-88.45 171.49-115.62C396.51 14.76 467.17.5 540 .5s143.49 14.26 210 42.4c64.24 27.17 121.94 66.07 171.49 115.62s88.45 107.24 115.62 171.49c28.13 66.51 42.4 137.17 42.4 210s-14.26 143.49-42.4 210c-27.17 64.24-66.07 121.94-115.62 171.49S814.25 1009.95 750 1037.12c-66.51 28.13-137.17 42.4-210 42.4Z"/><path d="M540 1c72.76 0 143.35 14.25 209.8 42.36 31.94 13.51 62.74 30.23 91.56 49.7 28.54 19.28 55.38 41.43 79.77 65.82s46.54 51.23 65.82 79.77a538.72 538.72 0 0 1 49.7 91.56c28.11 66.45 42.36 137.04 42.36 209.8s-14.25 143.35-42.36 209.8c-13.51 31.94-30.23 62.74-49.7 91.56-19.28 28.54-41.43 55.38-65.82 79.77s-51.23 46.54-79.77 65.82a538.72 538.72 0 0 1-91.56 49.7c-66.45 28.11-137.04 42.36-209.8 42.36s-143.35-14.25-209.8-42.36c-31.94-13.51-62.74-30.23-91.56-49.7-28.54-19.28-55.38-41.43-79.77-65.82s-46.54-51.23-65.82-79.77a538.72 538.72 0 0 1-49.7-91.56C15.25 683.35 1 612.77 1 540s14.25-143.35 42.36-209.8c13.51-31.94 30.23-62.74 49.7-91.56 19.28-28.54 41.43-55.38 65.82-79.77s51.23-46.54 79.77-65.82a538.72 538.72 0 0 1 91.56-49.7C396.65 15.25 467.23 1 540 1m0-1C241.77 0 0 241.77 0 540s241.77 540 540 540 540-241.77 540-540S838.23 0 540 0Z"/><path fill="#fff" d="M312.37 807.84 175.26 272.05h156.45l38.67 183.87c3.04 14.54 6.09 30.36 9.14 47.46 3.04 17.11 5.86 33.34 8.44 48.69 2.58 15.35 5.39 32.87 8.44 52.56h2.11c3.28-17.58 6.27-33.45 8.96-47.64 2.69-14.18 5.62-29.47 8.79-45.88 3.16-16.4 6.38-32.22 9.67-47.46l41.13-191.6h141.68l41.13 190.2c3.52 15.47 6.86 31.53 10.02 48.16 3.16 16.64 5.98 32.05 8.44 46.23 2.46 14.18 5.21 30.18 8.26 47.99H678c3.28-19.69 6.27-37.27 8.96-52.73 2.69-15.47 5.62-31.87 8.79-49.22 3.16-17.34 6.38-33.51 9.67-48.52l38.67-182.11h160.66L763.77 807.83H605.92l-48.16-226.76c-2.58-11.72-4.98-23.67-7.21-35.86a2456.07 2456.07 0 0 1-5.98-33.93c-1.76-10.43-3.58-21.97-5.45-34.63h-1.41c-2.11 12.66-4.1 24.2-5.98 34.63-1.88 10.43-3.93 21.74-6.15 33.93-2.23 12.19-4.52 24.14-6.86 35.86l-46.76 226.76H312.35Z"/></svg>