<svg xmlns="http://www.w3.org/2000/svg" viewBox="0 0 1080 1080"><path fill="#336" d="M.5.5h1079v1079H.5z"/><path d="M1079 1v1078H1V1h1078m1-1H0v1080h1080V0Z"/><path fill="#fff" d="M312.37 807.84 175.26 272.05h156.45l38.67 183.87c3.04 14.54 6.09 30.36 9.14 47.46 3.04 17.11 5.86 33.34 8.44 48.69 2.58 15.35 5.39 32.87 8.44 52.56h2.11c3.28-17.58 6.27-33.45 8.96-47.64 2.69-14.18 5.62-29.47 8.79-45.88 3.16-16.4 6.38-32.22 9.67-47.46l41.13-191.6h141.68l41.13 190.2c3.52 15.47 6.86 31.53 10.02 48.16 3.16 16.64 5.98 32.05 8.44 46.23 2.46 14.18 5.21 30.18 8.26 47.99H678c3.28-19.69 6.27-37.27 8.96-52.73 2.69-15.47 5.62-31.87 8.79-49.22 3.16-17.34 6.38-33.51 9.67-48.52l38.67-182.11h160.66L763.77 807.83H605.92l-48.16-226.76c-2.58-11.72-4.98-23.67-7.21-35.86a2456.07 2456.07 0 0 1-5.98-33.93c-1.76-10.43-3.58-21.97-5.45-34.63h-1.41c-2.11 12.66-4.1 24.2-5.98 34.63-1.88 10.43-3.93 21.74-6.15 33.93-2.23 12.19-4.52 24.14-6.86 35.86l-46.76 226.76H312.35Z"/></svg>