<svg xmlns="http://www.w3.org/2000/svg" viewBox="0 0 1080 1080"><path fill="#336" d="M270 1079.5c-71.99 0-139.66-28.03-190.57-78.93S.5 881.99.5 810V270c0-71.99 28.03-139.66 78.93-190.57S198.01.5 270 .5h540c71.99 0 139.66 28.03 190.57 78.93S1079.5 198.01 1079.5 270v540c0 71.99-28.03 139.66-78.93 190.57S881.99 1079.5 810 1079.5H270Z"/><path d="M810 1c36.32 0 71.54 7.11 104.71 21.14 32.03 13.55 60.8 32.94 85.51 57.65 24.7 24.7 44.1 53.47 57.65 85.51 14.03 33.16 21.14 68.39 21.14 104.71v540c0 36.32-7.11 71.54-21.14 104.71-13.55 32.03-32.94 60.8-57.65 85.51s-53.47 44.1-85.51 57.65c-33.16 14.03-68.39 21.14-104.71 21.14H270c-36.32 0-71.54-7.11-104.71-21.14-32.03-13.55-60.8-32.94-85.51-57.65-24.7-24.7-44.1-53.47-57.65-85.51C8.1 881.56.99 846.33.99 810.01V270c0-36.32 7.11-71.54 21.14-104.71 13.55-32.03 32.94-60.8 57.65-85.51 24.7-24.7 53.47-44.1 85.51-57.65C198.46 8.11 233.68 1 270 1h540m0-1H270C120.88 0 0 120.88 0 270v540c0 149.12 120.88 270 270 270h540c149.12 0 270-120.88 270-270V270C1080 120.88 959.12 0 810 0Z"/><path fill="#fff" d="M312.37 807.84 175.26 272.05h156.45l38.67 183.87c3.04 14.54 6.09 30.36 9.14 47.46 3.04 17.11 5.86 33.34 8.44 48.69 2.58 15.35 5.39 32.87 8.44 52.56h2.11c3.28-17.58 6.27-33.45 8.96-47.64 2.69-14.18 5.62-29.47 8.79-45.88 3.16-16.4 6.38-32.22 9.67-47.46l41.13-191.6h141.68l41.13 190.2c3.52 15.47 6.86 31.53 10.02 48.16 3.16 16.64 5.98 32.05 8.44 46.23 2.46 14.18 5.21 30.18 8.26 47.99H678c3.28-19.69 6.27-37.27 8.96-52.73 2.69-15.47 5.62-31.87 8.79-49.22 3.16-17.34 6.38-33.51 9.67-48.52l38.67-182.11h160.66L763.77 807.83H605.92l-48.16-226.76c-2.58-11.72-4.98-23.67-7.21-35.86a2456.07 2456.07 0 0 1-5.98-33.93c-1.76-10.43-3.58-21.97-5.45-34.63h-1.41c-2.11 12.66-4.1 24.2-5.98 34.63-1.88 10.43-3.93 21.74-6.15 33.93-2.23 12.19-4.52 24.14-6.86 35.86l-46.76 226.76H312.35Z"/></svg>